<?xml version="1.0" standalone="no"?>
<!DOCTYPE svg PUBLIC "-//W3C//DTD SVG 20010904//EN"
 "http://www.w3.org/TR/2001/REC-SVG-20010904/DTD/svg10.dtd">
<svg version="1.0" xmlns="http://www.w3.org/2000/svg"
 width="815.000000pt" height="176.000000pt" viewBox="0 0 815.000000 176.000000"
 preserveAspectRatio="xMidYMid meet">

<g transform="translate(0.000000,176.000000) scale(0.100000,-0.100000)"
fill="#000000" stroke="none">
<path d="M5079 1468 c-2 -7 -3 -262 -1 -565 l2 -553 105 0 105 0 0 275 c0 305
2 318 63 355 20 12 50 20 79 20 38 0 50 -5 67 -26 20 -26 21 -38 21 -325 l0
-299 105 0 105 0 0 333 c0 301 -2 336 -19 372 -36 77 -85 105 -187 105 -73 0
-143 -23 -198 -65 l-36 -27 0 206 0 206 -104 0 c-75 0 -105 -4 -107 -12z"/>
<path d="M4448 1411 c-157 -52 -257 -163 -303 -338 -18 -67 -21 -250 -6 -329
35 -181 124 -310 261 -377 61 -30 70 -32 180 -32 108 0 119 2 180 31 36 17 83
46 105 65 42 37 95 114 95 138 0 11 -30 27 -96 50 -52 18 -96 32 -97 30 -1 -2
-13 -25 -26 -51 -40 -79 -142 -112 -221 -70 -45 24 -93 104 -111 184 -21 92
-18 328 4 398 30 96 86 140 178 140 66 0 110 -25 147 -81 l24 -36 91 34 c51
19 94 36 96 39 2 2 -2 17 -9 34 -20 49 -99 121 -169 153 -56 26 -78 31 -165
34 -79 2 -113 -1 -158 -16z"/>
<path d="M6951 1160 c-145 -31 -229 -142 -202 -270 17 -83 50 -116 181 -181
145 -72 178 -110 154 -174 -24 -62 -172 -57 -260 10 l-32 25 -40 -73 c-24 -45
-36 -76 -30 -83 17 -23 125 -63 198 -75 228 -35 389 68 390 249 0 117 -46 168
-224 252 -114 53 -141 80 -130 125 16 64 123 80 210 31 37 -21 50 -24 56 -14
4 7 21 37 38 65 l30 52 -23 15 c-65 43 -221 66 -316 46z"/>
<path d="M7654 1160 c-63 -13 -140 -56 -168 -92 -57 -75 -58 -187 -3 -261 26
-33 55 -53 143 -97 125 -62 142 -74 155 -109 43 -113 -131 -152 -255 -57 l-35
26 -40 -74 c-23 -40 -41 -76 -41 -78 0 -14 145 -69 209 -79 227 -35 390 68
391 245 0 118 -53 177 -233 260 -103 48 -134 78 -123 121 16 63 128 79 212 30
25 -15 47 -25 48 -23 2 1 19 31 39 65 l36 63 -22 15 c-65 42 -222 65 -313 45z"/>
<path d="M6133 1142 c-151 -54 -230 -171 -240 -358 -18 -310 189 -501 479
-444 69 13 164 59 198 95 l21 22 -46 57 -46 56 -33 -25 c-49 -38 -100 -55
-160 -55 -112 0 -173 51 -191 158 l-7 42 250 0 c291 0 267 -12 251 129 -17
147 -85 261 -190 317 -51 27 -217 30 -286 6z m198 -142 c28 -16 57 -80 61
-136 l3 -49 -140 0 -140 0 3 43 c3 56 35 117 70 136 31 18 115 21 143 6z"/>
<path d="M3223 473 c9 -2 25 -2 35 0 9 3 1 5 -18 5 -19 0 -27 -2 -17 -5z"/>
</g>
</svg>
